
        <svg xmlns="http://www.w3.org/2000/svg" xmlns:xlink="http://www.w3.org/1999/xlink" version="1.1" width="2815.2184877170125" 
        height="3169.336450388994" viewBox="0 0 2815.2184877170125 3169.336450388994">
			<rect fill="#f9ed69" width="2815.2184877170125" height="3169.336450388994"/>
			<g transform="scale(8.46682251944966) translate(10, 10)">
				<defs id="SvgjsDefs10131"></defs><g id="SvgjsG10132" featureKey="rootContainer" transform="matrix(6.3004021644592285,0,0,6.3004021644592285,0.00004606747896356826,0.02629652604251387)" fill="#4b4847"><path xmlns="http://www.w3.org/2000/svg" d="M23.11 55.78L1.69 43.41A3.39 3.39 0 0 1 0 40.48V15.75a3.39 3.39 0 0 1 1.69-2.94L23.11.45a3.39 3.39 0 0 1 3.39 0l21.41 12.37a3.39 3.39 0 0 1 1.69 2.94v24.72a3.39 3.39 0 0 1-1.69 2.94L26.5 55.78a3.39 3.39 0 0 1-3.39 0z"></path></g><g id="SvgjsG10133" featureKey="symbolFeature-0" transform="matrix(1.0096876621246338,0,0,1.0096876621246338,110.56405356416545,110.97155323292331)" fill="#f8e220"><path xmlns="http://www.w3.org/2000/svg" fill="#f8e220" d="M21.77002,45.58203c0.59473-0.96484,1.33838-1.49414,2.09473-1.49414s1.5,0.5293,2.08789,1.48242  l1.46533,2.44531c-4.21094,7.65625-7.82471,14.19141-8.62012,15.62891L7.49414,68.72266L21.77002,45.58203z M5.38379,72.14453  l0.23926-0.38867l14.60205-6.56055l0.16162-0.29102c0.1958-0.35352,19.6416-35.48828,23.8125-43.62109  c1.52246-2.96875,2.66406-3.42773,3.22266-3.42773c0.00879,0,0.01709,0,0.0249,0c1.07861,0.02734,2.06152,1.66992,2.31934,2.24023  l7.92334,17.79688c-0.05811,0.08398-0.11865,0.16406-0.17432,0.25391L40.18799,66.23438l19.0293-27.03711  c1.18945-1.92773,3-1.92773,4.18945,0l17.32617,28.08789l3.8833,4.85938H5.38379z"></path></g><g id="SvgjsG10134" featureKey="nameFeature-0" transform="matrix(0.7856327891349792,0,0,0.7856327891349792,55.326602692020515,195.0218621005596)" fill="#f8e220"><path d="M0.85714 17.714 l0 -6.2857 l24.286 0 l0 6.2857 l-8.4571 0 l0 22.286 l-7.4286 0 l0 -22.286 l-8.4 0 z M29.714242857142857 40 l0 -24.286 l4.2857 -4.2857 l16.571 0 l4.2857 4.2857 l0 24.286 l-7.4286 0 l0 -8 l-10.286 0 l0 8 l-7.4286 0 z M37.143142857142855 25.714 l10.286 0 l0 -8 l-10.286 0 l0 8 z M61.42852857142857 35.7143 l0 -24.286 l7.4286 0 l0 22.286 l15.429 0 l0 6.2857 l-18.571 0 z M107.42842857142857 17.714 l-10.571 0 l0 16 l10.857 0 l0 -4.8571 l-6.5714 0 l0 -6.2857 l14 0 l0 13.143 l-4.2857 4.2857 l-17.143 0 l-4.2857 -4.2857 l0 -20 l4.2857 -4.2857 l17.143 0 l4.2857 4.2857 l0 4.2857 l-5.4286 0 z M121.71424285714286 40 l0 -24.286 l4.2857 -4.2857 l16.571 0 l4.2857 4.2857 l0 24.286 l-7.4286 0 l0 -8 l-10.286 0 l0 8 l-7.4286 0 z M129.14314285714286 25.714 l10.286 0 l0 -8 l-10.286 0 l0 8 z M171.14242857142858 11.428999999999998 l7.4286 0 l0 28.571 l-6.5714 0 l-11.143 -16 l0 16 l-7.4286 0 l0 -28.571 l6.5714 0 l11.143 15.886 l0 -15.886 z M184.2857142857143 40 l0 -5.7143 l2.2857 0 l0 -17.143 l-2.2857 0 l0 -5.7143 l12 0 l0 5.7143 l-2.2857 0 l0 17.143 l2.2857 0 l0 5.7143 l-12 0 z M225.42885714285717 11.428999999999998 l0 6.2857 l-14.571 16 l14.571 0 l0 6.2857 l-24.286 0 l0 -6.2857 l14.571 -16 l-14.571 0 l0 -6.2857 l24.286 0 z M255.4287142857143 17.714 l-16.857 0 l0 4.8571 l14.571 0 l0 6.2857 l-14.571 0 l0 4.8571 l16.857 0 l0 6.2857 l-20 0 l-4.2857 -4.2857 l0 -24.286 l24.286 0 l0 6.2857 z"></path></g>
			</g>
		</svg>
	